<svg xmlns="http://www.w3.org/2000/svg" viewBox="0 0 200 200">
  <defs>
    <linearGradient id="bg" x1="0%" y1="0%" x2="100%" y2="100%">
      <stop offset="0%" style="stop-color:#8B8B6B18"/>
      <stop offset="100%" style="stop-color:#8B8B6B38"/>
    </linearGradient>
  </defs>
  <rect width="200" height="200" rx="100" fill="url(#bg)"/>
  <!-- hills/vineyard -->
  <path d="M20 170 Q60 140 100 155 Q140 170 180 145" stroke="#8B8B6B" stroke-width="2" fill="none" opacity="0.25"/>
  <path d="M15 180 Q55 155 100 165 Q145 175 185 155" stroke="#8B8B6B" stroke-width="1.5" fill="none" opacity="0.2"/>
  <line x1="50" y1="155" x2="50" y2="145" stroke="#8B8B6B" stroke-width="1" opacity="0.2"/>
  <line x1="70" y1="160" x2="70" y2="148" stroke="#8B8B6B" stroke-width="1" opacity="0.2"/>
  <line x1="130" y1="168" x2="130" y2="156" stroke="#8B8B6B" stroke-width="1" opacity="0.2"/>
  <line x1="150" y1="162" x2="150" y2="150" stroke="#8B8B6B" stroke-width="1" opacity="0.2"/>
  <circle cx="50" cy="143" r="3" fill="#8B8B6B" opacity="0.2"/>
  <circle cx="70" cy="146" r="3" fill="#8B8B6B" opacity="0.2"/>
  <circle cx="130" cy="154" r="3" fill="#8B8B6B" opacity="0.2"/>
  <circle cx="150" cy="148" r="3" fill="#8B8B6B" opacity="0.2"/>
  <circle cx="45" cy="40" r="5" fill="#8B8B6B" opacity="0.15"/>
  <circle cx="160" cy="50" r="4" fill="#8B8B6B" opacity="0.15"/>
  <text x="100" y="115" text-anchor="middle" font-family="serif" font-size="72" font-weight="bold" fill="#8B8B6B">帕</text>
</svg>