<svg xmlns="http://www.w3.org/2000/svg" viewBox="0 0 200 200">
  <defs>
    <linearGradient id="bg" x1="0%" y1="0%" x2="100%" y2="100%">
      <stop offset="0%" style="stop-color:#C9A87C20"/>
      <stop offset="100%" style="stop-color:#C9A87C40"/>
    </linearGradient>
  </defs>
  <rect width="200" height="200" rx="100" fill="url(#bg)"/>
  <!-- bird top-right -->
  <path d="M145 40 Q155 30 165 38 Q158 35 155 42 Q152 38 145 40Z" fill="#C9A87C" opacity="0.25"/>
  <circle cx="162" cy="36" r="1" fill="#C9A87C" opacity="0.3"/>
  <line x1="165" y1="38" x2="170" y2="37" stroke="#C9A87C" stroke-width="1" opacity="0.25"/>
  <!-- bird bottom-left -->
  <path d="M30 155 Q40 145 50 153 Q43 150 40 157 Q37 153 30 155Z" fill="#C9A87C" opacity="0.18"/>
  <circle cx="47" cy="151" r="0.8" fill="#C9A87C" opacity="0.2"/>
  <!-- flying birds in distance -->
  <path d="M55 42 Q60 38 65 42" stroke="#C9A87C" stroke-width="1" fill="none" opacity="0.15"/>
  <path d="M140 155 Q145 151 150 155" stroke="#C9A87C" stroke-width="1" fill="none" opacity="0.15"/>
  <path d="M160 160 Q163 157 166 160" stroke="#C9A87C" stroke-width="0.8" fill="none" opacity="0.12"/>
  <text x="100" y="115" text-anchor="middle" font-family="serif" font-size="72" font-weight="bold" fill="#C9A87C">艾</text>
</svg>