<svg xmlns="http://www.w3.org/2000/svg" viewBox="0 0 200 200">
  <defs>
    <linearGradient id="bg" x1="0%" y1="0%" x2="100%" y2="100%">
      <stop offset="0%" style="stop-color:#8B6B8B18"/>
      <stop offset="100%" style="stop-color:#8B6B8B38"/>
    </linearGradient>
  </defs>
  <rect width="200" height="200" rx="100" fill="url(#bg)"/>
  <!-- cherry blossoms -->
  <g opacity="0.25" transform="translate(150,35)">
    <circle cx="0" cy="-5" r="3" fill="#8B6B8B"/>
    <circle cx="5" cy="0" r="3" fill="#8B6B8B"/>
    <circle cx="3" cy="5" r="3" fill="#8B6B8B"/>
    <circle cx="-3" cy="5" r="3" fill="#8B6B8B"/>
    <circle cx="-5" cy="0" r="3" fill="#8B6B8B"/>
    <circle cx="0" cy="0" r="2" fill="#8B6B8B" opacity="0.5"/>
  </g>
  <g opacity="0.18" transform="translate(40,160) scale(0.8)">
    <circle cx="0" cy="-5" r="3" fill="#8B6B8B"/>
    <circle cx="5" cy="0" r="3" fill="#8B6B8B"/>
    <circle cx="3" cy="5" r="3" fill="#8B6B8B"/>
    <circle cx="-3" cy="5" r="3" fill="#8B6B8B"/>
    <circle cx="-5" cy="0" r="3" fill="#8B6B8B"/>
  </g>
  <g opacity="0.15" transform="translate(165,140) scale(0.6)">
    <circle cx="0" cy="-5" r="3" fill="#8B6B8B"/>
    <circle cx="5" cy="0" r="3" fill="#8B6B8B"/>
    <circle cx="3" cy="5" r="3" fill="#8B6B8B"/>
    <circle cx="-3" cy="5" r="3" fill="#8B6B8B"/>
    <circle cx="-5" cy="0" r="3" fill="#8B6B8B"/>
  </g>
  <circle cx="55" cy="40" r="2" fill="#8B6B8B" opacity="0.15"/>
  <circle cx="170" cy="90" r="2" fill="#8B6B8B" opacity="0.12"/>
  <text x="100" y="115" text-anchor="middle" font-family="serif" font-size="72" font-weight="bold" fill="#8B6B8B">紫</text>
</svg>