<svg xmlns="http://www.w3.org/2000/svg" viewBox="0 0 200 200">
  <defs>
    <linearGradient id="bg" x1="0%" y1="0%" x2="100%" y2="100%">
      <stop offset="0%" style="stop-color:#8FB99620"/>
      <stop offset="100%" style="stop-color:#8FB99640"/>
    </linearGradient>
  </defs>
  <rect width="200" height="200" rx="100" fill="url(#bg)"/>
  <ellipse cx="42" cy="45" rx="8" ry="5" fill="#8FB996" opacity="0.25" transform="rotate(-30 42 45)"/>
  <ellipse cx="38" cy="50" rx="8" ry="5" fill="#8FB996" opacity="0.2" transform="rotate(30 38 50)"/>
  <ellipse cx="160" cy="55" rx="9" ry="5" fill="#8FB996" opacity="0.25" transform="rotate(20 160 55)"/>
  <ellipse cx="155" cy="60" rx="9" ry="5" fill="#8FB996" opacity="0.2" transform="rotate(-40 155 60)"/>
  <ellipse cx="50" cy="155" rx="7" ry="4" fill="#8FB996" opacity="0.2" transform="rotate(45 50 155)"/>
  <ellipse cx="150" cy="150" rx="7" ry="4" fill="#8FB996" opacity="0.2" transform="rotate(-20 150 150)"/>
  <ellipse cx="145" cy="155" rx="7" ry="4" fill="#8FB996" opacity="0.15" transform="rotate(50 145 155)"/>
  <circle cx="40" cy="47" r="2" fill="#8FB996" opacity="0.3"/>
  <circle cx="158" cy="57" r="2" fill="#8FB996" opacity="0.3"/>
  <text x="100" y="115" text-anchor="middle" font-family="serif" font-size="72" font-weight="bold" fill="#8FB996">梨</text>
</svg>