<svg xmlns="http://www.w3.org/2000/svg" viewBox="0 0 200 200">
  <defs>
    <linearGradient id="bg" x1="0%" y1="0%" x2="100%" y2="100%">
      <stop offset="0%" style="stop-color:#7A8B6F20"/>
      <stop offset="100%" style="stop-color:#7A8B6F40"/>
    </linearGradient>
  </defs>
  <rect width="200" height="200" rx="100" fill="url(#bg)"/>
  <!-- rose top-right -->
  <circle cx="158" cy="48" r="6" fill="none" stroke="#7A8B6F" stroke-width="1.5" opacity="0.25"/>
  <path d="M155 48 Q158 42 161 48 Q158 44 155 48Z" fill="#7A8B6F" opacity="0.2"/>
  <path d="M152 50 Q158 46 164 50" fill="none" stroke="#7A8B6F" stroke-width="1" opacity="0.2"/>
  <path d="M158 54 Q158 65 155 72" stroke="#7A8B6F" stroke-width="1.5" fill="none" opacity="0.2"/>
  <path d="M155 65 Q148 62 145 66" stroke="#7A8B6F" stroke-width="1" fill="none" opacity="0.15"/>
  <!-- rose bottom-left -->
  <circle cx="42" cy="152" r="5" fill="none" stroke="#7A8B6F" stroke-width="1.5" opacity="0.2"/>
  <path d="M39 152 Q42 147 45 152 Q42 149 39 152Z" fill="#7A8B6F" opacity="0.15"/>
  <path d="M42 157 Q42 165 40 170" stroke="#7A8B6F" stroke-width="1.5" fill="none" opacity="0.15"/>
  <path d="M40 163 Q35 160 32 163" stroke="#7A8B6F" stroke-width="1" fill="none" opacity="0.12"/>
  <text x="100" y="115" text-anchor="middle" font-family="serif" font-size="72" font-weight="bold" fill="#7A8B6F">里</text>
</svg>