<svg xmlns="http://www.w3.org/2000/svg" viewBox="0 0 200 200">
  <defs>
    <linearGradient id="bg" x1="0%" y1="0%" x2="100%" y2="100%">
      <stop offset="0%" style="stop-color:#6B5B4B20"/>
      <stop offset="100%" style="stop-color:#6B5B4B40"/>
    </linearGradient>
  </defs>
  <rect width="200" height="200" rx="100" fill="url(#bg)"/>
  <!-- star constellation top-right -->
  <circle cx="150" cy="35" r="2" fill="#6B5B4B" opacity="0.3"/>
  <circle cx="165" cy="42" r="2.5" fill="#6B5B4B" opacity="0.25"/>
  <circle cx="158" cy="55" r="1.8" fill="#6B5B4B" opacity="0.25"/>
  <circle cx="172" cy="58" r="1.5" fill="#6B5B4B" opacity="0.2"/>
  <line x1="150" y1="35" x2="165" y2="42" stroke="#6B5B4B" stroke-width="0.8" opacity="0.15"/>
  <line x1="165" y1="42" x2="158" y2="55" stroke="#6B5B4B" stroke-width="0.8" opacity="0.15"/>
  <line x1="158" y1="55" x2="172" y2="58" stroke="#6B5B4B" stroke-width="0.8" opacity="0.15"/>
  <line x1="165" y1="42" x2="172" y2="58" stroke="#6B5B4B" stroke-width="0.8" opacity="0.12"/>
  <!-- constellation bottom-left -->
  <circle cx="35" cy="148" r="1.8" fill="#6B5B4B" opacity="0.2"/>
  <circle cx="48" cy="158" r="2" fill="#6B5B4B" opacity="0.2"/>
  <circle cx="38" cy="165" r="1.5" fill="#6B5B4B" opacity="0.18"/>
  <line x1="35" y1="148" x2="48" y2="158" stroke="#6B5B4B" stroke-width="0.8" opacity="0.12"/>
  <line x1="48" y1="158" x2="38" y2="165" stroke="#6B5B4B" stroke-width="0.8" opacity="0.12"/>
  <!-- scattered stars -->
  <circle cx="45" cy="40" r="1" fill="#6B5B4B" opacity="0.15"/>
  <circle cx="55" cy="52" r="1.2" fill="#6B5B4B" opacity="0.12"/>
  <circle cx="148" cy="152" r="1" fill="#6B5B4B" opacity="0.12"/>
  <text x="100" y="115" text-anchor="middle" font-family="serif" font-size="72" font-weight="bold" fill="#6B5B4B">波</text>
</svg>