<svg xmlns="http://www.w3.org/2000/svg" viewBox="0 0 200 200">
  <defs>
    <linearGradient id="bg" x1="0%" y1="0%" x2="100%" y2="100%">
      <stop offset="0%" style="stop-color:#7B5B3B18"/>
      <stop offset="100%" style="stop-color:#7B5B3B38"/>
    </linearGradient>
  </defs>
  <rect width="200" height="200" rx="100" fill="url(#bg)"/>
  <!-- feather -->
  <path d="M150 30 Q155 60 148 90 Q145 75 140 60 Q142 45 150 30Z" fill="#7B5B3B" opacity="0.2"/>
  <path d="M152 30 Q160 55 155 85 Q153 70 150 55 Q150 40 152 30Z" fill="#7B5B3B" opacity="0.15"/>
  <line x1="150" y1="30" x2="145" y2="95" stroke="#7B5B3B" stroke-width="1" opacity="0.3"/>
  <!-- small feather accent -->
  <path d="M40 150 Q43 160 40 172 Q38 163 36 155 Q37 151 40 150Z" fill="#7B5B3B" opacity="0.18"/>
  <circle cx="55" cy="45" r="5" fill="#7B5B3B" opacity="0.15"/>
  <circle cx="160" cy="155" r="6" fill="#7B5B3B" opacity="0.2"/>
  <text x="100" y="115" text-anchor="middle" font-family="serif" font-size="72" font-weight="bold" fill="#7B5B3B">托</text>
</svg>